<?xml version="1.0" encoding="UTF-8" standalone="no"?>
<!-- Created with Inkscape (http://www.inkscape.org/) -->

<svg
   width="210mm"
   height="210mm"
   viewBox="0 0 210 210"
   version="1.1"
   id="svg105165"
   inkscape:version="1.2.2 (b0a8486541, 2022-12-01)"
   sodipodi:docname="og-line-gradient.svg"
   xmlns:inkscape="http://www.inkscape.org/namespaces/inkscape"
   xmlns:sodipodi="http://sodipodi.sourceforge.net/DTD/sodipodi-0.dtd"
   xmlns:xlink="http://www.w3.org/1999/xlink"
   xmlns="http://www.w3.org/2000/svg"
   xmlns:svg="http://www.w3.org/2000/svg">
  <sodipodi:namedview
     id="namedview105167"
     pagecolor="#505050"
     bordercolor="#eeeeee"
     borderopacity="1"
     inkscape:showpageshadow="0"
     inkscape:pageopacity="0"
     inkscape:pagecheckerboard="0"
     inkscape:deskcolor="#505050"
     inkscape:document-units="mm"
     showgrid="false"
     inkscape:zoom="0.45254834"
     inkscape:cx="208.81747"
     inkscape:cy="551.32232"
     inkscape:window-width="1920"
     inkscape:window-height="1027"
     inkscape:window-x="1080"
     inkscape:window-y="411"
     inkscape:window-maximized="1"
     inkscape:current-layer="layer1" />
  <defs
     id="defs105162">
    <linearGradient
       inkscape:collect="always"
       xlink:href="#linearGradient105022"
       id="linearGradient103482"
       x1="-14.973577"
       y1="-482.26453"
       x2="-13.493669"
       y2="-298.4509"
       gradientUnits="userSpaceOnUse"
       gradientTransform="matrix(1.8629728,0.00797103,-0.00744325,1.9950673,136.19942,923.66448)" />
    <linearGradient
       id="linearGradient105022"
       x1="202.50026"
       y1="283.86411"
       x2="1280.5708"
       y2="1152.3577"
       gradientTransform="matrix(0.98940403,0.13142687,-0.13982378,0.98257883,99.156268,-94.822066)"
       gradientUnits="userSpaceOnUse"
       spreadMethod="pad">
      <stop
         offset="0%"
         style="stop-color:#B3CFFF;stop-opacity:0.82438435"
         id="stop105008" />
      <stop
         offset="0.18902588"
         style="stop-color:#D4E4FF"
         id="stop105010" />
      <stop
         offset="0.36126298"
         style="stop-color:#FFFFFF"
         id="stop105012" />
      <stop
         offset="0.48805878"
         style="stop-color:#FFD8B1"
         id="stop105014" />
      <stop
         offset="0.61465448"
         style="stop-color:#ffba82;stop-opacity:1;"
         id="stop105016" />
      <stop
         offset="0.7797671"
         style="stop-color:#ff994f;stop-opacity:1;"
         id="stop105018" />
      <stop
         offset="1"
         style="stop-color:#FF6600"
         id="stop105020" />
    </linearGradient>
  </defs>
  <g
     inkscape:label="Layer 1"
     inkscape:groupmode="layer"
     id="layer1">
    <path
       style="opacity:0.639877;fill:url(#linearGradient103482);fill-opacity:1;stroke:none;stroke-width:5.01255;stroke-dasharray:none;stroke-opacity:1"
       d="m 95.075863,206.60098 c -4.65274,-0.6347 -7.03757,-1.75957 -8.65762,-3.39279 -2.35999,-2.37918 -2.71352,-6.74951 -2.91046,-19.8212 -0.14005,-9.29115 -0.27481,-17.73951 -0.29967,-18.77422 -0.0452,-1.88126 -0.0452,-1.88126 -4.02046,-3.12986 -3.63973,-1.14315 -8.36297,-3.4571 -12.352584,-5.84118 -2.504133,-1.49641 -4.719244,-3.02046 -6.196109,-4.30001 -0.476555,-0.42183 -0.911031,-0.82902 -1.327061,-1.24361 -0.456452,-0.33465 -0.827866,-0.76702 -1.299344,-0.99739 -0.246836,-0.1156 -0.541413,-0.0427 -0.677165,0.0766 -0.952073,0.83705 -2.662201,2.76655 -7.530723,8.21746 -12.944882,14.49345 -16.180483,16.63641 -20.096592,13.31034 -5.160515,-4.38298 -3.661195,-7.83938 9.675203,-22.30448 9.428539,-10.22647 9.428539,-10.22647 7.185943,-14.36137 -2.766831,-5.10149 -4.988984,-11.24044 -6.085831,-16.81289 -0.833359,-4.23386 -0.833359,-4.23386 -17.638003,-4.5697 -13.2456969,-0.26472 -18.0884975,-0.53365 -19.8350854,-2.91737 -0.864961,-1.18045 -1.4992741,-3.64554 -1.448823,-5.71839 0.06856,-2.81858 0.619641,-4.235406 1.897289,-5.376212 2.0500949,-1.83058 7.0767304,-2.01325 19.3967864,-2.19445 16.969598,-0.24958 16.969598,-0.24958 17.784743,-4.0207 1.143243,-5.28917 3.450913,-11.37929 6.297846,-16.620671 C 49.369634,71.33242 49.369634,71.33242 39.422958,60.433198 25.684597,45.379186 24.830005,43.055258 31.089487,37.7717 c 4.236886,-3.576372 6.176192,-2.427568 19.53455,11.571457 9.511131,9.967274 9.511131,9.967274 11.983307,7.93498 3.721752,-3.059573 12.712019,-7.589757 17.135389,-8.634607 3.84928,-0.909249 3.84928,-0.909249 3.88519,-6.192609 0.0347,-5.090356 0.49568,-9.642525 0.64572,-13.285922 0.26003,-6.314415 0.43975,-10.35519 1.19711,-13.268474 1.04429,-4.017118 2.87005,-5.372809 6.39321,-5.351267 4.36671,0.02662 6.3781,1.455075 7.058791,10.697325 0.28444,3.861883 0.291,9.126917 0.34921,16.281291 0.20024,24.617466 0.56379,23.771186 -11.092351,25.821291 -21.556311,3.7914 -34.116362,20.221092 -32.726888,42.809835 1.322573,21.50112 13.994168,36.58181 34.532618,41.09785 7.34405,1.61482 8.21625,2.77871 8.861441,11.82496 0.36399,5.10324 4.507446,3.79855 17.959656,-5.6549 42.29595,-29.72332 44.66202,-101.794226 4.35067,-132.523402 -11.20232,-8.539523 -9.31472,-17.6134063 3.51029,-16.8743393 11.28536,0.65033 23.08237,5.9947863 33.91764,13.0143973 9.59326,6.214997 19.41933,13.519162 26.47062,23.38562 52.9941,74.151774 -3.58679,177.961014 -89.979797,166.175764 z m 21.747957,-15.95443 c 72.41692,-7.17763 98.9015,-110.311401 39.97042,-155.649029 -5.66754,-4.360197 -6.04567,-4.372004 -3.50079,-0.108964 29.22595,48.956179 3.68232,126.392773 -47.1877,143.051653 -8.027687,2.62888 -7.232686,1.76585 -7.255466,7.87654 -0.0215,5.72382 2.397156,6.37372 17.973536,4.82988 z"
       id="path93658"
       sodipodi:nodetypes="sssssscccsssssssssssssssssssssssssssssssssssscssss" />
  </g>
</svg>
