<?xml version="1.0" encoding="UTF-8" standalone="no"?>
<!-- Created with Inkscape (http://www.inkscape.org/) -->

<svg
   width="210mm"
   height="297mm"
   viewBox="0 0 210 297"
   version="1.1"
   id="svg5"
   xml:space="preserve"
   inkscape:version="1.2.2 (b0a8486541, 2022-12-01)"
   sodipodi:docname="logo-bw.svg"
   xmlns:inkscape="http://www.inkscape.org/namespaces/inkscape"
   xmlns:sodipodi="http://sodipodi.sourceforge.net/DTD/sodipodi-0.dtd"
   xmlns="http://www.w3.org/2000/svg"
   xmlns:svg="http://www.w3.org/2000/svg"><sodipodi:namedview
     id="namedview7"
     pagecolor="#505050"
     bordercolor="#eeeeee"
     borderopacity="1"
     inkscape:showpageshadow="0"
     inkscape:pageopacity="0"
     inkscape:pagecheckerboard="0"
     inkscape:deskcolor="#505050"
     inkscape:document-units="mm"
     showgrid="false"
     showguides="false"
     inkscape:zoom="0.54929737"
     inkscape:cx="277.6274"
     inkscape:cy="207.53786"
     inkscape:window-width="1920"
     inkscape:window-height="1026"
     inkscape:window-x="1080"
     inkscape:window-y="411"
     inkscape:window-maximized="1"
     inkscape:current-layer="layer1" /><defs
     id="defs2"><rect
       x="11.090804"
       y="416.48587"
       width="427.45735"
       height="247.1756"
       id="rect358" /></defs><g
     inkscape:label="Layer 1"
     inkscape:groupmode="layer"
     id="layer1"><path
       style="fill:#384044;fill-opacity:1;stroke:#000000;stroke-width:0.465;stroke-dasharray:none;stroke-opacity:0.488757"
       d="m 102.50444,107.99491 c -0.50933,-0.0498 -1.87856,-0.21745 -3.042716,-0.37251 -4.68298,-0.62376 -4.36562,0.2942 -4.36562,-12.627724 V 84.659771 l -1.52136,-0.314421 c -4.19676,-0.867349 -11.102,-4.324868 -13.14412,-6.581383 -0.41602,-0.459692 -0.74875,-0.169445 -6.84267,5.968992 -7.00816,7.059353 -7.23864,7.211991 -9.07406,6.009378 -2.90669,-1.904534 -2.25492,-3.173979 5.68409,-11.070847 3.07094,-3.054638 5.58353,-5.643972 5.58353,-5.754076 0,-0.110101 -0.40328,-0.766008 -0.89619,-1.457571 -2.35311,-3.301497 -4.9152,-10.118146 -4.92279,-13.097486 -0.002,-0.727604 -0.002,-0.727604 -9.98987,-0.733489 -9.06393,-0.0053 -10.04024,-0.04818 -10.55237,-0.46302 -1.37762,-1.115915 -1.53566,-2.801247 -0.38363,-4.090983 l 0.77181,-0.864071 10.01833,-0.07508 10.01833,-0.07508 0.47,-2.28333 c 0.80898,-3.930126 2.41031,-7.774128 4.77279,-11.457128 l 0.93345,-1.455208 -6.46993,-6.494449 c -5.79385,-5.815813 -6.46993,-6.584407 -6.46993,-7.355327 0,-1.903315 1.75075,-3.488269 3.41102,-3.087992 0.42294,0.101969 3.1649,2.63472 7.08402,6.543527 l 6.39399,6.377168 1.27893,-1.129636 c 2.73752,-2.417977 7.61734,-4.78704 11.46538,-5.566233 l 2.24896,-0.455394 0.13229,-9.056105 0.13229,-9.0561073 0.86407,-0.7717059 c 1.26905,-1.1333985 3.1665,-1.1139889 4.139486,0.042344 0.67758,0.8052604 0.93322,7.5902102 0.76783,20.3798572 -0.0381,2.945765 -0.75857,3.559974 -4.647906,3.962361 -27.45238,2.84019 -27.06339,42.973598 0.46402,47.874973 4.130276,0.735414 4.658346,1.588777 4.291836,6.93584 l -0.1442,2.103903 0.96783,-0.181565 c 9.35691,-1.755374 21.35112,-12.116638 26.97291,-23.300694 9.77319,-19.442925 2.8659,-46.472413 -14.55993,-56.9756515 -3.17358,-1.912843 -2.13592,-5.4926214 1.56776,-5.4085434 9.85497,0.2237199 23.85464,7.37442 31.81018,16.2478879 32.90093,36.697095 3.80079,94.296184 -45.21784,89.501484 z m 14.47415,-6.14207 c 46.24513,-8.798205 53.04958,-70.540867 10.04039,-91.105161 l -1.54693,-0.73964 1.76865,1.9103 c 23.7405,25.641939 10.0733,72.638281 -23.69379,81.473965 -1.2282,0.321379 -2.25616,0.596167 -2.28435,0.61064 -0.0282,0.01447 -0.11361,1.891675 -0.18985,4.171561 l -0.1386,4.145255 1.1159,0.11526 c 3.08798,0.31897 12.02359,-0.0295 14.92858,-0.58218 z"
       id="path302" /><text
       xml:space="preserve"
       transform="matrix(0.34571191,0,0,0.37730262,29.748578,-41.581989)"
       id="text356"
       style="font-weight:500;font-size:53.3333px;font-family:'Ubuntu Sans Mono';-inkscape-font-specification:'Ubuntu Sans Mono Medium';white-space:pre;shape-inside:url(#rect358);opacity:1;fill:none;stroke:#000000;stroke-linecap:square;stroke-linejoin:round;stroke-opacity:0.458031;paint-order:markers fill stroke"
       x="152.04417"
       y="0"><tspan
         x="113.67357"
         y="464.93074"
         id="tspan2022"><tspan
           style="font-style:oblique;font-weight:bold;font-family:'DejaVu Sans';-inkscape-font-specification:'DejaVu Sans, Bold Oblique';text-align:center;text-anchor:middle"
           id="tspan2018">fluxfce</tspan><tspan
           style="font-style:oblique;font-weight:normal;font-family:'DejaVu Sans';-inkscape-font-specification:'DejaVu Sans, Oblique';text-align:center;text-anchor:middle;fill:#384044"
           id="tspan2020"> 
</tspan></tspan></text><text
       xml:space="preserve"
       style="font-style:oblique;font-variant:normal;font-weight:normal;font-stretch:normal;font-size:14.1111px;font-family:'DejaVu Sans';-inkscape-font-specification:'DejaVu Sans, Oblique';font-variant-ligatures:normal;font-variant-caps:normal;font-variant-numeric:normal;font-variant-east-asian:normal;text-align:center;text-anchor:middle;opacity:1;fill:#384044;fill-opacity:1;stroke:#000000;stroke-width:0.465;stroke-linecap:square;stroke-linejoin:round;stroke-dasharray:none;stroke-opacity:0.458031;paint-order:markers fill stroke"
       x="105.21359"
       y="150.44458"
       id="text1957"><tspan
         sodipodi:role="line"
         id="tspan1955"
         style="stroke-width:0.465"
         x="105.21359"
         y="150.44458">v0.95(beta)</tspan></text></g></svg>
